# xmcd CD database file
#
# Track frame offsets:
#	150
#	24634
#	47029
#	69098
#	89448
#	115435
#	132292
#	155521
#
# Disc length: 2436 seconds
#
# Revision: 0
# Processed by: cddbd v1.5.1PL0 Copyright (c) Steve Scherf et al.
# Submitted via: CDex 1.51
#
DISCID=66098208
DTITLE=Miami University Steel Band - Burnin
DYEAR=2001
DGENRE=Steel Drum
TTITLE0=Let Your Feelings Show
TTITLE1=Versos pra Teresa
TTITLE2=Burnin'
TTITLE3=Marialla's Dance
TTITLE4=Heartland
TTITLE5=Desert Wind
TTITLE6=Plenty Lovin'
TTITLE7=Sojourn
EXTD=YEAR: 2001
EXTT0=
EXTT1=
EXTT2=
EXTT3=
EXTT4=
EXTT5=
EXTT6=
EXTT7=
PLAYORDER=
